<?xml version="1.0" encoding="UTF-8"?>
<svg width="132px" height="140px" viewBox="0 0 132 140" version="1.1" xmlns="http://www.w3.org/2000/svg" xmlns:xlink="http://www.w3.org/1999/xlink">
    <!-- Generator: Sketch 51.3 (57544) - http://www.bohemiancoding.com/sketch -->
    <title>drinks</title>
    <desc>Created with Sketch.</desc>
    <defs></defs>
    <g id="Page-1" stroke="none" stroke-width="1" fill="none" fill-rule="evenodd">
        <g id="drinks" fill="#000000" fill-rule="nonzero">
            <path d="M131.760145,130.549199 C131.200485,129.508009 130.001211,128.947368 128.721987,129.267735 C127.043004,129.668192 125.364022,130.148741 123.764991,130.549199 C123.20533,130.709382 122.645669,130.869565 122.006057,131.029748 C118.488189,118.615561 115.050273,106.281465 111.532405,93.8672769 L112.491823,93.1464531 C113.850999,91.9450801 114.890369,90.583524 115.769836,89.0617849 C117.129013,86.7391304 118.088431,84.2562929 118.807995,81.6933638 C120.247123,76.4874142 120.806784,71.201373 120.886735,65.8352403 C120.966687,62.5514874 120.806784,59.187643 120.566929,55.9038902 C120.407026,53.4210526 120.167171,50.9382151 119.927317,48.4553776 C119.607511,45.7322654 119.207753,43.0892449 118.807995,40.3661327 C118.328286,37.0022883 117.608722,33.798627 116.649303,30.5148741 C114.090854,21.624714 110.812841,12.9748284 107.13507,4.48512586 C106.975167,4.16475973 106.815263,3.84439359 106.575409,3.52402746 C104.976378,1.04118993 101.938219,-0.320366133 98.6602059,0.560640732 C94.9824349,1.60183066 91.3046638,2.56292906 87.5469412,3.60411899 C82.1901878,5.04576659 76.9133858,6.48741419 71.5566323,7.92906178 C68.278619,8.81006865 66.359782,11.7734554 66.2798304,14.4965675 C66.2798304,15.1372998 66.359782,15.6979405 66.359782,16.3386728 C66.519685,18.7414188 66.7595397,21.0640732 67.1592974,23.4668192 C67.6390067,26.1899314 68.1187159,28.993135 68.5984252,31.7162471 C69.2380376,34.9199085 69.8776499,38.1235698 70.8370684,41.2471396 C72.9158086,47.8947368 75.3943065,54.382151 78.112659,60.7894737 C80.1114476,65.5949657 82.3500909,70.2402746 84.9884918,74.7254005 C87.3070866,78.6498856 89.7855845,82.4141876 92.6638401,85.9382151 C94.3428225,88.020595 96.2616596,90.0228833 98.4203513,91.624714 C100.259237,92.98627 102.258025,94.1075515 104.496669,94.5881007 C105.056329,94.7482838 105.695942,94.7482838 106.335554,94.9084668 C109.853422,107.402746 113.37129,119.897025 116.889158,132.471396 C116.4894,132.551487 116.169594,132.631579 115.849788,132.791762 C113.37129,133.432494 110.812841,134.073227 108.334343,134.79405 C107.215021,135.114416 106.415506,136.075515 106.415506,137.196796 C106.415506,138.398169 107.055118,139.359268 108.17444,139.839817 C108.254391,139.919908 108.414294,139.919908 108.494246,140 L109.533616,140 C110.493035,139.759725 111.452453,139.439359 112.491823,139.199085 C118.248334,137.677346 124.004846,136.155606 129.761357,134.713959 C130.560872,134.473684 131.280436,134.153318 131.680194,133.352403 C131.840097,133.112128 131.920048,132.871854 132,132.631579 L132,131.430206 C131.920048,131.029748 131.840097,130.789474 131.760145,130.549199 Z M73.9551787,31.3157895 C73.3955179,27.9519451 72.7559055,24.5881007 72.1962447,21.3043478 C71.8764385,19.221968 71.7165354,17.2196796 71.5566323,15.1372998 C71.4766808,14.0160183 72.0363416,13.2951945 73.1556632,13.0549199 C76.353725,12.173913 79.5517868,11.2929062 82.7498486,10.4919908 C88.4264082,8.97025172 94.1029679,7.36842105 99.7795276,5.84668192 C100.099334,5.76659039 100.339188,5.68649886 100.658995,5.68649886 C101.45851,5.60640732 102.098122,6.08695652 102.417929,6.80778032 C103.53725,9.53089245 104.736523,12.2540046 105.775893,15.0572082 C107.774682,20.1029748 109.533616,25.1487414 111.132647,30.3546911 C111.212598,30.5949657 111.212598,30.7551487 111.29255,31.0755149 C98.9800121,31.8764302 86.6674743,32.7574371 74.2749849,33.5583524 C74.1950333,32.6773455 74.0351302,32.0366133 73.9551787,31.3157895 Z M59.2440945,7.76887872 C50.369473,5.36613272 41.4948516,2.96338673 32.5402786,0.480549199 L30.6214416,0 L29.5820715,0 C29.4221684,0.0800915332 29.2622653,0.0800915332 29.1823137,0.160183066 C26.5439128,0.640732265 24.7050273,2.08237986 23.5857056,4.56521739 C23.5057541,4.72540046 23.4258025,4.96567506 23.345851,5.12585812 C21.4270139,9.61098398 19.5881284,14.1762014 17.9890975,18.7414188 C16.3900666,23.0663616 14.9509388,27.4713959 13.7516657,31.8764302 C11.9927317,38.4439359 11.1132647,45.0915332 10.5536039,51.8993135 C10.3137492,54.6224256 10.2337977,57.2654462 10.0738946,59.9885584 C9.83403998,64.2334096 9.91399152,68.5583524 10.3937008,72.8032037 C10.713507,75.9267735 11.2731678,78.9702517 12.1526348,81.9336384 C13.0321018,84.8970252 14.2313749,87.7002288 15.9903089,90.2631579 C17.029679,91.7048055 18.1490006,92.98627 19.66808,93.9473684 C19.66808,93.9473684 19.7480315,94.02746 19.7480315,94.1075515 C16.3101151,106.281465 12.9521502,118.375286 9.5142338,130.629291 C9.35433071,130.549199 9.19442762,130.549199 9.11447608,130.549199 C7.19563901,130.06865 5.35675348,129.588101 3.43791641,129.107551 C1.83888552,128.707094 0.559660812,129.668192 0.239854634,130.869565 C0.239854634,131.029748 0.0799515445,131.10984 0,131.270023 L0,132.070938 C0.0799515445,132.15103 0.159903089,132.231121 0.159903089,132.391304 C0.479709267,133.512586 1.27922471,134.073227 2.31859479,134.313501 C8.23500909,135.83524 14.1514234,137.437071 20.0678377,138.95881 C20.7874016,139.118993 21.586917,139.359268 22.3864325,139.519451 C24.0654149,139.919908 25.6644458,138.718535 25.6644458,136.956522 C25.6644458,135.675057 24.9448819,134.713959 23.6656572,134.393593 C21.586917,133.832952 19.4282253,133.272311 17.3494852,132.71167 C16.3900666,132.471396 15.5105996,132.231121 14.5511811,131.990847 C18.0690491,119.576659 21.5069655,107.162471 25.0248334,94.7482838 C25.5045427,94.6681922 25.9043004,94.5881007 26.3040581,94.5080092 C28.5427014,94.02746 30.4615385,92.98627 32.300424,91.624714 C34.4591157,90.0228833 36.3779528,88.020595 38.0569352,85.9382151 C42.0545124,80.97254 45.4924288,75.5263158 48.3706844,69.8398169 C51.4088431,63.8329519 53.9672925,57.6659039 56.3658389,51.4187643 C58.5245306,45.6521739 60.5233192,39.805492 61.7225924,33.7185355 C62.9218655,27.791762 64.0411872,21.9450801 64.3609933,15.9382151 C64.4409449,15.2173913 64.4409449,14.416476 64.2810418,13.6956522 C63.8812841,10.4919908 62.1223501,8.56979405 59.2440945,7.76887872 Z M59.324046,14.8169336 C59.1641429,16.4187643 59.0841914,17.9405034 58.9242883,19.5423341 C58.5245306,23.2265446 57.8049667,26.8306636 57.0854028,30.4347826 C57.0054512,30.6750572 57.0054512,30.8352403 56.9254997,31.1556064 C44.6129618,30.3546911 32.3803755,29.5537757 20.1477892,28.6727689 C20.3076923,28.2723112 20.3876439,27.8718535 20.4675954,27.4713959 C22.7062386,20.583524 25.2646881,13.8558352 28.0629921,7.20823799 C28.1429437,7.04805492 28.2228952,6.80778032 28.3028468,6.64759725 C28.7026045,5.60640732 29.5820715,5.20594966 30.6214416,5.44622426 C31.5009085,5.68649886 32.300424,5.92677346 33.0999394,6.08695652 C41.254997,8.32951945 49.4100545,10.5720824 57.6450636,12.7345538 C58.1247729,12.8947368 58.5245306,13.0549199 58.8443368,13.375286 C59.2440945,13.8558352 59.4039976,14.3363844 59.324046,14.8169336 Z" id="Shape"></path>
        </g>
    </g>
</svg>